# xmcd
#
# Track frame offsets:
#	150
#	23531
#	50928
#	78358
#	113928
#	141651
#	174763
#	213776
#
# Disc length: 3226 seconds
#
# Revision: 0
# Processed by: cddbd v1.5.1PL2 Copyright (c) Steve Scherf et al.
# Submitted via: dBpowerAMP V4.0
#
DISCID=680c9808
DTITLE=Big Bud - Late Night Blues CD2
DYEAR=2000
DGENRE=Blues
TTITLE0=Bluegrass
TTITLE1=Hypnosis
TTITLE2=Listen
TTITLE3=Spacedub
TTITLE4=My Spirit
TTITLE5=State Of Mind
TTITLE6=Pure
TTITLE7=Mr. Nice
EXTD=
EXTT0=
EXTT1=
EXTT2=
EXTT3=
EXTT4=
EXTT5=
EXTT6=
EXTT7=
PLAYORDER=
